# xmcd
# 
# Track frame offsets:
#     150
#     11093
#     27829
#     42780
#     75618
#     93695
#     117741
#     141992
#     168590
# 
# Disc length: 2495
# 
# Revision: 18
# Processed by: cddbd v1.5.2PL0 Copyright (c) Steve Scherf et al.
# Submitted via: fre:ac v1.0.31
# 
DISCID=7709bd09
DTITLE=Led Zeppelin - Led Zeppelin III Deluxe Edition Disc 2
DYEAR=1970
DGENRE=Rock/Pop
TTITLE0=The Immigrant Song (Alternate Mix)
TTITLE1=Friends (Track - No Vocal)
TTITLE2=Celebration Day (Alternate Mix)
TTITLE3=Since I've Been Loving You (Rough Mix)
TTITLE4=Bathroom Sound (Track - No Vocal)
TTITLE5=Gallows Pole (Rough Mix)
TTITLE6=That's The Way (Rough Mix)
TTITLE7=Jennings Farm Blues (Rough Mix)
TTITLE8=Key to the Highway - Trouble in Mind (Rough Mix)
EXTD=2014.06.04  WPCR-15693\n (2014 Re_master)
EXTT0=
EXTT1=
EXTT2=
EXTT3=
EXTT4=
EXTT5=
EXTT6=
EXTT7=
EXTT8=
PLAYORDER=
